<svg id="Layer_1" data-name="Layer 1" xmlns="http://www.w3.org/2000/svg" viewBox="0 0 396 93.59"><path d="M223.16,288.08v8.08a.23.23,0,0,1-.23.22h-.1a.36.36,0,0,1-.35-.17l-5.06-6h0V296a.23.23,0,0,1-.23.23h-.76a.23.23,0,0,1-.22-.23V288a.22.22,0,0,1,.22-.22h.1c.12,0,.2,0,.36.18l5,5.85h0v-5.68a.23.23,0,0,1,.23-.23h.76a.24.24,0,0,1,.23.23m-90.77,7.86a.22.22,0,0,1-.2.32h-.76a.29.29,0,0,1-.28-.18l-.74-1.65h-3.93l-.73,1.65a.3.3,0,0,1-.27.18h-.76a.22.22,0,0,1-.21-.32l3.69-8.08a.28.28,0,0,1,.21-.13h.11a.28.28,0,0,1,.21.13ZM130,293.4l-1.47-3.29h-.06L127,293.4Zm46.57-.54,1.65,3.05a.23.23,0,0,1-.21.35h-.9a.25.25,0,0,1-.25-.16L175.24,293h-1.82V296a.23.23,0,0,1-.22.23h-.79a.22.22,0,0,1-.22-.23v-7.95a.22.22,0,0,1,.22-.23h3.27a2.59,2.59,0,0,1,2.62,2.57,2.66,2.66,0,0,1-1.78,2.44m.53-2.41a1.47,1.47,0,0,0-1.46-1.43h-2.14v2.91h2.14a1.49,1.49,0,0,0,1.46-1.48m-32.79,1c-1-.41-1.52-.83-1.52-1.51,0-.45.35-1.09,1.36-1.09a2.84,2.84,0,0,1,1.62.6.29.29,0,0,0,.42-.11l.3-.46a.29.29,0,0,0-.07-.41,4.14,4.14,0,0,0-2.23-.71,2.35,2.35,0,0,0-2.63,2.22c0,1.4,1,2,2.19,2.55s1.81.95,1.81,1.67a1.21,1.21,0,0,1-1.35,1.12,2.7,2.7,0,0,1-1.93-.83.26.26,0,0,0-.4.09l-.32.5c-.13.2,0,.28.08.38a3.86,3.86,0,0,0,2.58.95,2.45,2.45,0,0,0,2.68-2.27c0-1.47-1.19-2.13-2.59-2.69m62.35,4.52a.22.22,0,0,1-.21.32h-.76a.27.27,0,0,1-.27-.18l-.75-1.65H200.7l-.73,1.65a.32.32,0,0,1-.28.18h-.76a.22.22,0,0,1-.2-.32l3.69-8.08a.27.27,0,0,1,.2-.13h.12a.27.27,0,0,1,.2.13Zm-2.44-2.54-1.48-3.29h-.06l-1.46,3.29Zm-42.28-5.55h-4.81a.22.22,0,0,0-.22.23V296a.22.22,0,0,0,.22.23h4.81a.23.23,0,0,0,.23-.23v-.66a.23.23,0,0,0-.23-.23h-3.8v-2.58h3.21a.23.23,0,0,0,.23-.23v-.67a.24.24,0,0,0-.23-.23h-3.21V289h3.8a.23.23,0,0,0,.23-.23v-.67a.23.23,0,0,0-.23-.23m179.1,6.5a.23.23,0,0,0-.29,0,3.25,3.25,0,0,1-2.07.79,3.12,3.12,0,0,1,0-6.23,3.25,3.25,0,0,1,2.08.8c.11.11.22.11.3,0l.53-.54a.23.23,0,0,0,0-.33,4.19,4.19,0,0,0-2.91-1.12,4.33,4.33,0,1,0,0,8.65,4.1,4.1,0,0,0,2.92-1.17.22.22,0,0,0,0-.32Zm17.44,1.59a.21.21,0,0,1-.2.32h-.76a.27.27,0,0,1-.27-.18l-.75-1.65h-3.92l-.74,1.65a.3.3,0,0,1-.27.18h-.76a.21.21,0,0,1-.2-.32l3.68-8.08a.3.3,0,0,1,.21-.13h.12a.27.27,0,0,1,.2.13ZM356,293.4l-1.48-3.29h-.06L353,293.4Zm16.35-.54,1.64,3.05a.23.23,0,0,1-.2.35h-.9a.25.25,0,0,1-.25-.16L371.06,293h-1.81V296a.24.24,0,0,1-.23.23h-.78A.23.23,0,0,1,368,296v-7.95a.23.23,0,0,1,.23-.23h3.27a2.58,2.58,0,0,1,2.61,2.57,2.66,2.66,0,0,1-1.77,2.44m.53-2.41a1.48,1.48,0,0,0-1.47-1.43h-2.13v2.91h2.13a1.49,1.49,0,0,0,1.47-1.48m-257.26,4.69h-3.25v-7.06a.24.24,0,0,0-.23-.23h-.79a.23.23,0,0,0-.23.23V296a.23.23,0,0,0,.23.23h4.27a.23.23,0,0,0,.23-.23v-.66a.23.23,0,0,0-.23-.23m273.7-7.29h-4.8a.23.23,0,0,0-.23.23V296a.23.23,0,0,0,.23.23h4.8a.23.23,0,0,0,.23-.23v-.66a.23.23,0,0,0-.23-.23h-3.79v-2.58h3.21a.22.22,0,0,0,.22-.23v-.67a.23.23,0,0,0-.22-.23h-3.21V289h3.79a.23.23,0,0,0,.23-.23v-.67a.23.23,0,0,0-.23-.23M241,292a4.22,4.22,0,0,1-4.21,4.22H234a.23.23,0,0,1-.22-.23v-7.95a.23.23,0,0,1,.22-.23h2.76A4.21,4.21,0,0,1,241,292m-1.33,0a2.93,2.93,0,0,0-3-3.05H235v6.13h1.62a2.94,2.94,0,0,0,3-3.08m44.16-4.19H279a.22.22,0,0,0-.22.23V296a.22.22,0,0,0,.22.23h4.81A.22.22,0,0,0,284,296v-.66a.22.22,0,0,0-.22-.23H280v-2.58h3.21a.23.23,0,0,0,.23-.23v-.67a.24.24,0,0,0-.23-.23H280V289h3.8a.22.22,0,0,0,.22-.23v-.67a.22.22,0,0,0-.22-.23m28.89,0h-.77a.23.23,0,0,0-.23.23v5.68h0l-5-5.85c-.16-.18-.24-.18-.36-.18h-.1a.23.23,0,0,0-.23.22V296a.24.24,0,0,0,.23.23h.76a.22.22,0,0,0,.22-.23v-5.85h0l5,6a.38.38,0,0,0,.35.17h.11a.23.23,0,0,0,.23-.22v-8.08a.24.24,0,0,0-.23-.23m-43.69,0h-.85a.22.22,0,0,0-.2.13l-2.66,5.95h0L262.57,288a.23.23,0,0,0-.2-.13h-.85a.22.22,0,0,0-.21.31l3.66,8.09a.27.27,0,0,0,.21.13h.12a.21.21,0,0,0,.2-.13l3.69-8.09a.21.21,0,0,0-.21-.31m26.12,0h-.8a.23.23,0,0,0-.22.23V296a.23.23,0,0,0,.22.23h.8a.23.23,0,0,0,.22-.23v-7.95a.23.23,0,0,0-.22-.23M75.77,259.06H61.1V218.53a1.51,1.51,0,0,0-3,0v40.53H55.34V218.53a1.51,1.51,0,0,0-3,0v42a1.51,1.51,0,0,0,1.51,1.5H75.77a1.5,1.5,0,0,0,0-3m54.76-39v17.22H145a1.51,1.51,0,1,1,0,3H130.53v18.8H148a1.5,1.5,0,0,1,0,3H123.27a1.5,1.5,0,0,1-1.5-1.5v-42a1.5,1.5,0,0,1,1.5-1.5H148a1.5,1.5,0,0,1,0,3Zm-3,0h-2.75v39h2.75Zm320.66,39.89-20.74-42.06a1.56,1.56,0,0,0-2.69,0L404,259.92a1.5,1.5,0,1,0,2.69,1.33l19.39-39.33,1.56,3.15-17.17,34.85a1.5,1.5,0,0,0,.68,2,1.45,1.45,0,0,0,.67.15,1.49,1.49,0,0,0,1.34-.83l16.15-32.78,16.17,32.78a1.49,1.49,0,0,0,1.34.83,1.45,1.45,0,0,0,.67-.15,1.5,1.5,0,0,0,.68-2M374.61,231.3a14.3,14.3,0,0,1-11.08,13.91l9.53,14.52a1.5,1.5,0,0,1-.44,2.08,1.46,1.46,0,0,1-.82.25,1.51,1.51,0,0,1-1.26-.68l-10.36-15.8h-7.83v15a1.5,1.5,0,1,1-3,0V220h-2.76v40.53a1.5,1.5,0,0,1-3,0v-42a1.5,1.5,0,0,1,1.5-1.5h15.25a14.28,14.28,0,0,1,14.27,14.27m-3,0A11.29,11.29,0,0,0,360.34,220h-8v22.54h8a11.28,11.28,0,0,0,11.27-11.27M225,217.81a1.52,1.52,0,0,1-.06,1.54l-26,39.71h20.69a1.5,1.5,0,0,1,0,3H189.3a1.49,1.49,0,0,1-1.32-.79,1.48,1.48,0,0,1,.06-1.53L214,220H195.31a1.5,1.5,0,0,1,0-3h28.33a1.5,1.5,0,0,1,1.32.78m-4.1,2.22h-3.3l-25.49,39h3.29ZM148,202.79H123.27a1.5,1.5,0,0,0,0,3H148a1.5,1.5,0,0,0,0-3m134.77,15.07a1.56,1.56,0,0,0-2.69,0l-20.74,42.06a1.5,1.5,0,0,0,.68,2,1.44,1.44,0,0,0,.66.15,1.49,1.49,0,0,0,1.35-.83l19.39-39.33,1.55,3.15-17.16,34.85a1.5,1.5,0,0,0,.68,2,1.45,1.45,0,0,0,.67.15,1.51,1.51,0,0,0,1.35-.83l16.14-32.78,16.17,32.78a1.5,1.5,0,0,0,2.69-1.33Z" transform="translate(-52.33 -202.79)"/></svg>